<svg width="1301" height="3778" viewBox="0 0 1301 3778" fill="none" xmlns="http://www.w3.org/2000/svg">
<path fill-rule="evenodd" clip-rule="evenodd" d="M1281.3 11939C1282.11 11852.4 1243.87 11769.5 1193.06 11724.9C1053.68 11602.3 814.355 11596.3 625.01 11739C458.713 11864.2 309.487 11723.1 327.502 11556.7C345.518 11390.2 502.412 11362.7 606.502 11415.3C670.85 11447.9 717.804 11477.6 783.916 11479.9C824.749 11481.4 967.024 11475.2 1076.06 11333.3C1185.09 11191.5 1221.71 11015.5 1216.33 10895.6C1213.07 10822.7 1199.42 10761.4 1178.34 10710.6C1079.36 10472.4 846.354 10467 693.342 10587.1C632.404 10634.9 561.33 10677.4 506.479 10682.2C425.159 10689.3 335.853 10657.9 302.819 10570.2C299.337 10560.9 262.891 10463.8 333.087 10378.7C394.392 10304.5 512.437 10315.4 557.167 10324.7C780.229 10371.1 1042.41 10343.9 1058.31 10105.4C1070.35 9924.83 821.838 9813.97 627.295 9899.91C618.275 9903.9 461.267 9987.63 352.045 9938.25C215.105 9876.33 228.052 9703.55 360.502 9659.98C412.61 9642.84 503.206 9650.28 570.472 9666.25C637.736 9682.22 711.819 9705.58 817.924 9714.89C1044.02 9734.73 1238.94 9631.48 1238.94 9446.62C1238.94 9250.69 1006.58 9161.39 807.924 9241.1C771.029 9255.91 643.572 9303.24 556.344 9279.98C464.124 9255.39 413.784 9180.56 407.487 9133.05C379.477 8921.76 622.957 8871.19 815.499 8989.41C1008.04 9107.64 1258.3 9045.45 1294.76 8874.58C1320.74 8752.77 1262.41 8625.23 1139.63 8582.79C1017.16 8540.45 945.873 8573.95 839.209 8589.97C719.299 8607.99 636.849 8573.16 587.361 8520.63C537.873 8468.1 537.371 8352.54 570.941 8302.08C674.277 8146.76 846.319 8236.74 945.873 8249.66C1045.43 8262.58 1161.86 8232.29 1212.81 8151.21C1312.67 7992.27 1220.07 7820.63 1051.82 7774.84C945.882 7746.01 831.209 7762.48 609.376 7836.39C387.543 7910.3 261.436 7783.02 305.792 7641.03C349.006 7525.51 509.034 7502.87 679.499 7597.41C863.757 7699.6 1122.3 7653.45 1158.76 7482.58C1170.7 7426.58 1178.34 7288.45 1050.81 7207.57C923.272 7126.69 750.834 7169.32 693.21 7177.98C533.123 7202.03 404.487 7167.79 328.342 7082.36C293.875 7043.69 234.249 6918.84 313.797 6817.06C393.344 6715.29 550.442 6754.25 605.455 6776.03C697.355 6812.43 786.677 6845.78 857.368 6846.78C1051.65 6849.53 1098.72 6686.1 1101.91 6653.91C1113.75 6534.43 1029.56 6434.36 925.824 6402.84C793.25 6362.56 624.478 6398.63 519.034 6431.83C162.047 6544.23 124.867 6240.68 205.176 6113.32C285.486 5985.97 513.664 5909.24 716.856 6185.31C865.099 6386.72 1131.22 6333.37 1226.04 6195.21C1320.85 6057.05 1290.41 5805 1158.76 5681.87C1027.1 5558.73 872.349 5538.94 690.921 5667.69C604.359 5729.12 538.406 5755.98 484.499 5752.46C334.289 5742.65 294.139 5535.62 289.382 5480.66C282.917 5405.98 311.917 5251.19 410.342 5228.12C508.769 5205.06 551.085 5273.27 648.738 5342.89C746.388 5412.52 936.452 5405.34 1036.58 5342.89C1166.05 5262.15 1218.96 5095.56 1205.53 4967.43C1189.95 4818.87 1123.58 4715.37 998.886 4641.9C907.1 4587.82 832.303 4584.18 730.734 4584.18C596.937 4584.18 508.394 4528.53 467.364 4468.73C426.337 4408.93 432.322 4291.85 530.447 4260.89C628.571 4229.92 697.353 4294.73 745.044 4328.35C929.174 4458.16 1182.93 4382.26 1219.38 4211.39C1245.37 4089.58 1184.62 3955.78 1061.81 3916.92C945.562 3880.15 861.353 3896.72 758.043 3923.69C616.003 3960.76 484.506 3983.07 410.34 3957.98C318.137 3926.79 277.782 3848.56 271.484 3801.05C243.474 3589.76 476.954 3549.19 669.496 3667.42C862.039 3785.64 1112.3 3723.46 1148.75 3552.58C1174.74 3430.77 1116.41 3303.24 993.627 3260.79C871.157 3218.45 799.872 3251.95 693.207 3267.98C416.135 3309.61 365.787 3071.65 424.94 2980.08C525.276 2824.77 700.318 2914.74 799.872 2927.66C899.427 2940.58 1015.84 2908.73 1066.81 2829.21C1168.66 2670.28 1048.4 2513.12 915.82 2472.84C783.246 2432.56 614.474 2468.64 509.03 2501.83C152.043 2614.23 114.863 2310.68 195.172 2183.32C275.482 2055.97 503.66 1979.24 706.852 2255.31C855.095 2456.72 1121.22 2403.37 1216.04 2265.21C1310.85 2127.05 1280.41 1875 1148.75 1751.87C1017.1 1628.73 862.345 1608.94 680.917 1737.69C594.355 1799.12 528.402 1825.98 474.495 1822.46C324.285 1812.65 284.135 1605.62 279.378 1550.66C272.913 1475.98 301.913 1321.19 400.338 1298.13C498.765 1275.07 541.081 1343.27 638.734 1412.9C736.384 1482.52 906.448 1475.34 1006.57 1412.9C1136.04 1332.15 1181.65 1171.38 1168.22 1043.25C1152.64 894.695 1079.52 777.82 954.803 705.514C878.736 661.414 817.693 645.622 685.743 629.861C617.489 621.709 566.45 589.776 555.783 533.127C545.113 476.48 577.728 428.077 638.733 388.957C771.583 303.757 781.61 193.05 721.833 117.897C662.063 42.74 530.45 0 530.45 0H500.578C500.578 0 684.028 57.402 716.594 157.527C749.16 257.652 638.74 339.203 555.79 323.953C472.84 308.703 457.422 261.983 357.274 240.977C257.124 219.969 21.241 280.387 53.371 516.757C72.876 660.242 196.591 728.203 330.881 734.68C465.169 741.156 579.908 675.907 693.211 669.297C785.607 663.907 842.035 691.999 869.638 710.747C936.665 756.27 985.418 850.979 948.018 946.047C920.516 1015.95 842.365 1056.09 766.06 1048.27C711.21 1042.65 649.824 1014.53 588.97 955.105C465.957 834.975 202.953 840.351 103.966 1078.65C82.886 1129.39 69.244 1190.7 65.976 1263.61C60.603 1383.54 97.221 1559.46 206.254 1701.32C315.287 1843.17 457.562 1849.41 498.394 1847.95C564.507 1845.58 611.461 1815.89 675.809 1783.33C779.899 1730.66 936.792 1758.2 954.809 1924.66C972.823 2091.12 823.597 2232.25 657.299 2106.96C467.956 1964.31 228.632 1970.35 89.245 2092.88C4.99097 2166.95 -44.709 2346.18 60.96 2472.84C206.254 2646.98 434.844 2519.14 564.028 2516.78C693.211 2514.42 741.875 2627.71 697.356 2697.2C652.836 2766.69 550.684 2756.97 484.386 2713.26C418.09 2669.55 231.18 2615.9 82.24 2762.33C-36.94 2879.5 -46.165 3201.81 231.502 3300.78C509.168 3399.76 669.5 3244.02 857.15 3295.11C994.06 3332.38 1006.58 3515.53 869.637 3577.44C732.697 3639.35 582.001 3582.23 484.387 3539.1C289.844 3453.17 53.371 3548.7 53.371 3744.62C53.371 3929.48 248.291 4032.73 474.388 4012.89C580.493 4003.58 654.576 3980.23 721.841 3964.25C789.106 3948.28 879.701 3940.84 931.811 3957.98C1064.26 4001.55 1077.21 4174.34 940.267 4236.25C831.045 4285.63 674.037 4201.9 665.017 4197.91C470.474 4111.98 221.961 4222.84 234.001 4403.43C249.901 4641.9 522.081 4649.12 765.145 4612.74C809.875 4606.04 897.919 4602.47 959.225 4676.75C1029.42 4761.79 992.975 4858.94 989.493 4868.18C956.458 4955.89 857.151 4985.26 785.833 4980.21C730.981 4976.32 659.825 4944.54 598.97 4885.11C475.957 4764.98 212.953 4770.35 113.966 5008.65C92.886 5059.4 79.244 5120.71 75.976 5193.62C70.603 5313.54 107.221 5489.46 216.254 5631.32C325.287 5773.18 467.562 5779.41 508.394 5777.95C574.507 5775.58 621.461 5745.89 685.809 5713.33C789.899 5660.66 946.792 5688.2 964.809 5854.66C982.823 6021.12 833.597 6162.25 667.299 6036.96C477.956 5894.31 238.632 5900.35 99.245 6022.88C14.991 6096.95 -34.709 6276.19 70.96 6402.84C216.254 6576.98 444.844 6449.15 574.028 6446.79C703.211 6444.43 783.916 6525.46 756.058 6628.48C728.203 6731.51 589.893 6725.87 530.448 6698.69C471.005 6671.51 284.675 6631.17 149.672 6759.25C30.462 6872.35 40.769 7153.39 251.502 7230.79C519.142 7329.08 679.5 7174.03 867.15 7225.11C1004.06 7262.38 1016.58 7445.53 879.637 7507.44C742.697 7569.36 592.001 7512.23 494.387 7469.11C299.844 7383.17 63.371 7478.7 63.371 7674.62C63.371 7870.55 248.568 7961.34 514.517 7891.93C590.794 7872.03 675.82 7847.52 710.027 7838.79C824.944 7809.46 1016.3 7783.04 1095.97 7933.37C1111.4 7962.48 1119.87 8077.02 1056.06 8131.06C900.196 8263.06 682.161 8114.45 615.864 8070.74C549.567 8027.03 355.097 7973.81 216.254 8132.06C127.612 8233.1 109.834 8513.82 377.502 8622.79C645.17 8731.77 815.502 8566.03 1003.15 8617.12C1140.06 8654.39 1152.58 8837.53 1015.64 8899.45C878.698 8961.36 728.002 8904.23 630.388 8861.11C435.845 8775.17 199.372 8870.7 199.372 9066.63C199.372 9262.55 386.469 9369.41 640.388 9324.9C830.584 9291.55 1003.63 9336.44 1031.34 9475.23C1046.35 9550.43 993.632 9631.72 881.969 9659.99C807.787 9678.76 676.306 9662.77 534.266 9625.69C430.956 9598.73 346.746 9582.15 230.504 9618.93C107.694 9657.78 46.939 9791.59 72.926 9913.4C109.379 10084.3 363.136 10160.2 547.266 10030.4C594.956 9996.73 663.738 9931.93 761.864 9962.89C859.989 9993.86 865.974 10110.9 824.944 10170.7C783.918 10230.5 695.374 10286.2 561.577 10286.2C460.007 10286.2 339.17 10286.7 247.385 10340.8C122.685 10414.2 85.248 10516.8 103.968 10618.9C130.548 10763.7 258.868 10817.2 333.798 10822.1C431.528 10828.5 522.23 10802.1 648.741 10704.3C745.048 10629.9 867.151 10628.5 963.631 10687.9C1060.11 10747.2 1119.05 10895.6 1092.94 11069C1066.83 11242.4 958.023 11444.7 807.811 11454.5C753.905 11458 687.951 11431.1 601.391 11369.7C419.961 11240.9 265.211 11260.7 133.554 11383.9C1.89796 11507 -28.544 11759.1 66.274 11897.2C76.57 11912.2 88.889 11926.2 102.857 11939H529.12C545.503 11924.1 561.036 11906.9 575.455 11887.3C778.647 11611.2 1006.83 11688 1087.14 11815.3C1107.87 11848.2 1120.77 11892.8 1122.36 11939H1281.3L1281.3 11939Z" fill="#F5F5F7"/>
</svg>
